<mxfile host="app.diagrams.net" modified="2024-05-20T03:39:27.595Z" agent="Mozilla/5.0 (Windows NT 10.0; Win64; x64) AppleWebKit/537.36 (KHTML, like Gecko) Chrome/124.0.0.0 Safari/537.36 Edg/124.0.0.0" etag="GoF8Lj3Fx5-3f3u3k_JD" version="24.4.4" type="github">
  <diagram id="C5RBs43oDa-KdzZeNtuy" name="Page-1">
    <mxGraphModel dx="794" dy="501" grid="1" gridSize="10" guides="1" tooltips="1" connect="1" arrows="1" fold="1" page="1" pageScale="1" pageWidth="827" pageHeight="1169" math="0" shadow="0">
      <root>
        <mxCell id="WIyWlLk6GJQsqaUBKTNV-0" />
        <mxCell id="WIyWlLk6GJQsqaUBKTNV-1" parent="WIyWlLk6GJQsqaUBKTNV-0" />
        <mxCell id="WIyWlLk6GJQsqaUBKTNV-2" value="" style="rounded=0;html=1;jettySize=auto;orthogonalLoop=1;fontSize=11;endArrow=block;endFill=0;endSize=8;strokeWidth=1;shadow=0;labelBackgroundColor=none;edgeStyle=orthogonalEdgeStyle;" parent="WIyWlLk6GJQsqaUBKTNV-1" source="WIyWlLk6GJQsqaUBKTNV-3" edge="1">
          <mxGeometry relative="1" as="geometry">
            <mxPoint x="220" y="170" as="targetPoint" />
          </mxGeometry>
        </mxCell>
        <mxCell id="WIyWlLk6GJQsqaUBKTNV-3" value="Start" style="rounded=1;whiteSpace=wrap;html=1;fontSize=12;glass=0;strokeWidth=1;shadow=0;" parent="WIyWlLk6GJQsqaUBKTNV-1" vertex="1">
          <mxGeometry x="160" y="80" width="120" height="40" as="geometry" />
        </mxCell>
        <mxCell id="dr0syjzNlCjw_UHFwukT-4" value="" style="edgeStyle=orthogonalEdgeStyle;rounded=0;orthogonalLoop=1;jettySize=auto;html=1;" edge="1" parent="WIyWlLk6GJQsqaUBKTNV-1" source="dr0syjzNlCjw_UHFwukT-0" target="dr0syjzNlCjw_UHFwukT-3">
          <mxGeometry relative="1" as="geometry" />
        </mxCell>
        <mxCell id="dr0syjzNlCjw_UHFwukT-6" value="Trigger Event" style="edgeLabel;html=1;align=center;verticalAlign=middle;resizable=0;points=[];" vertex="1" connectable="0" parent="dr0syjzNlCjw_UHFwukT-4">
          <mxGeometry x="-0.122" y="2" relative="1" as="geometry">
            <mxPoint as="offset" />
          </mxGeometry>
        </mxCell>
        <mxCell id="dr0syjzNlCjw_UHFwukT-0" value="S3&amp;nbsp;&lt;div&gt;( Simple Storage Sevice)&lt;/div&gt;" style="rounded=1;whiteSpace=wrap;html=1;fontSize=12;glass=0;strokeWidth=1;shadow=0;" vertex="1" parent="WIyWlLk6GJQsqaUBKTNV-1">
          <mxGeometry x="135" y="170" width="170" height="40" as="geometry" />
        </mxCell>
        <mxCell id="dr0syjzNlCjw_UHFwukT-8" value="" style="edgeStyle=orthogonalEdgeStyle;rounded=0;orthogonalLoop=1;jettySize=auto;html=1;" edge="1" parent="WIyWlLk6GJQsqaUBKTNV-1" source="dr0syjzNlCjw_UHFwukT-3" target="dr0syjzNlCjw_UHFwukT-7">
          <mxGeometry relative="1" as="geometry" />
        </mxCell>
        <mxCell id="dr0syjzNlCjw_UHFwukT-3" value="AWS lambda" style="rounded=1;whiteSpace=wrap;html=1;fontSize=12;glass=0;strokeWidth=1;shadow=0;" vertex="1" parent="WIyWlLk6GJQsqaUBKTNV-1">
          <mxGeometry x="160" y="292" width="120" height="40" as="geometry" />
        </mxCell>
        <mxCell id="dr0syjzNlCjw_UHFwukT-10" value="" style="edgeStyle=orthogonalEdgeStyle;rounded=0;orthogonalLoop=1;jettySize=auto;html=1;" edge="1" parent="WIyWlLk6GJQsqaUBKTNV-1" source="dr0syjzNlCjw_UHFwukT-7" target="dr0syjzNlCjw_UHFwukT-9">
          <mxGeometry relative="1" as="geometry" />
        </mxCell>
        <mxCell id="dr0syjzNlCjw_UHFwukT-13" value="Yes" style="edgeLabel;html=1;align=center;verticalAlign=middle;resizable=0;points=[];" vertex="1" connectable="0" parent="dr0syjzNlCjw_UHFwukT-10">
          <mxGeometry x="-0.1082" y="-1" relative="1" as="geometry">
            <mxPoint as="offset" />
          </mxGeometry>
        </mxCell>
        <mxCell id="dr0syjzNlCjw_UHFwukT-12" value="" style="edgeStyle=orthogonalEdgeStyle;rounded=0;orthogonalLoop=1;jettySize=auto;html=1;" edge="1" parent="WIyWlLk6GJQsqaUBKTNV-1" source="dr0syjzNlCjw_UHFwukT-7" target="dr0syjzNlCjw_UHFwukT-11">
          <mxGeometry relative="1" as="geometry" />
        </mxCell>
        <mxCell id="dr0syjzNlCjw_UHFwukT-14" value="No" style="edgeLabel;html=1;align=center;verticalAlign=middle;resizable=0;points=[];" vertex="1" connectable="0" parent="dr0syjzNlCjw_UHFwukT-12">
          <mxGeometry x="-0.2778" y="-1" relative="1" as="geometry">
            <mxPoint as="offset" />
          </mxGeometry>
        </mxCell>
        <mxCell id="dr0syjzNlCjw_UHFwukT-7" value="file is a image?" style="strokeWidth=2;html=1;shape=mxgraph.flowchart.decision;whiteSpace=wrap;" vertex="1" parent="WIyWlLk6GJQsqaUBKTNV-1">
          <mxGeometry x="165" y="370" width="110" height="90" as="geometry" />
        </mxCell>
        <mxCell id="dr0syjzNlCjw_UHFwukT-16" value="" style="edgeStyle=orthogonalEdgeStyle;rounded=0;orthogonalLoop=1;jettySize=auto;html=1;" edge="1" parent="WIyWlLk6GJQsqaUBKTNV-1" source="dr0syjzNlCjw_UHFwukT-9" target="dr0syjzNlCjw_UHFwukT-15">
          <mxGeometry relative="1" as="geometry" />
        </mxCell>
        <mxCell id="dr0syjzNlCjw_UHFwukT-9" value="AWS Textract" style="rounded=1;whiteSpace=wrap;html=1;strokeWidth=2;" vertex="1" parent="WIyWlLk6GJQsqaUBKTNV-1">
          <mxGeometry x="350" y="388" width="120" height="55" as="geometry" />
        </mxCell>
        <mxCell id="dr0syjzNlCjw_UHFwukT-20" value="" style="edgeStyle=orthogonalEdgeStyle;rounded=0;orthogonalLoop=1;jettySize=auto;html=1;" edge="1" parent="WIyWlLk6GJQsqaUBKTNV-1" source="dr0syjzNlCjw_UHFwukT-11" target="dr0syjzNlCjw_UHFwukT-19">
          <mxGeometry relative="1" as="geometry" />
        </mxCell>
        <mxCell id="dr0syjzNlCjw_UHFwukT-11" value="AWS Comprehend" style="rounded=1;whiteSpace=wrap;html=1;strokeWidth=2;" vertex="1" parent="WIyWlLk6GJQsqaUBKTNV-1">
          <mxGeometry x="160" y="508" width="120" height="60" as="geometry" />
        </mxCell>
        <mxCell id="dr0syjzNlCjw_UHFwukT-17" value="" style="edgeStyle=orthogonalEdgeStyle;rounded=0;orthogonalLoop=1;jettySize=auto;html=1;" edge="1" parent="WIyWlLk6GJQsqaUBKTNV-1" source="dr0syjzNlCjw_UHFwukT-15" target="dr0syjzNlCjw_UHFwukT-11">
          <mxGeometry relative="1" as="geometry" />
        </mxCell>
        <mxCell id="dr0syjzNlCjw_UHFwukT-18" value="Move" style="edgeLabel;html=1;align=center;verticalAlign=middle;resizable=0;points=[];" vertex="1" connectable="0" parent="dr0syjzNlCjw_UHFwukT-17">
          <mxGeometry x="0.0733" y="-1" relative="1" as="geometry">
            <mxPoint as="offset" />
          </mxGeometry>
        </mxCell>
        <mxCell id="dr0syjzNlCjw_UHFwukT-15" value="Extracted text image" style="whiteSpace=wrap;html=1;rounded=1;strokeWidth=2;" vertex="1" parent="WIyWlLk6GJQsqaUBKTNV-1">
          <mxGeometry x="350" y="507.5" width="120" height="60" as="geometry" />
        </mxCell>
        <mxCell id="dr0syjzNlCjw_UHFwukT-22" value="" style="edgeStyle=orthogonalEdgeStyle;rounded=0;orthogonalLoop=1;jettySize=auto;html=1;" edge="1" parent="WIyWlLk6GJQsqaUBKTNV-1" source="dr0syjzNlCjw_UHFwukT-19" target="dr0syjzNlCjw_UHFwukT-21">
          <mxGeometry relative="1" as="geometry" />
        </mxCell>
        <mxCell id="dr0syjzNlCjw_UHFwukT-26" value="Yes" style="edgeLabel;html=1;align=center;verticalAlign=middle;resizable=0;points=[];" vertex="1" connectable="0" parent="dr0syjzNlCjw_UHFwukT-22">
          <mxGeometry x="0.0167" y="4" relative="1" as="geometry">
            <mxPoint as="offset" />
          </mxGeometry>
        </mxCell>
        <mxCell id="dr0syjzNlCjw_UHFwukT-24" value="" style="edgeStyle=orthogonalEdgeStyle;rounded=0;orthogonalLoop=1;jettySize=auto;html=1;" edge="1" parent="WIyWlLk6GJQsqaUBKTNV-1" source="dr0syjzNlCjw_UHFwukT-19" target="dr0syjzNlCjw_UHFwukT-23">
          <mxGeometry relative="1" as="geometry" />
        </mxCell>
        <mxCell id="dr0syjzNlCjw_UHFwukT-25" value="No" style="edgeLabel;html=1;align=center;verticalAlign=middle;resizable=0;points=[];" vertex="1" connectable="0" parent="dr0syjzNlCjw_UHFwukT-24">
          <mxGeometry x="-0.1803" y="-3" relative="1" as="geometry">
            <mxPoint as="offset" />
          </mxGeometry>
        </mxCell>
        <mxCell id="dr0syjzNlCjw_UHFwukT-19" value="Is PII Detected?" style="rhombus;whiteSpace=wrap;html=1;rounded=1;strokeWidth=2;" vertex="1" parent="WIyWlLk6GJQsqaUBKTNV-1">
          <mxGeometry x="160" y="620" width="120" height="100" as="geometry" />
        </mxCell>
        <mxCell id="dr0syjzNlCjw_UHFwukT-28" style="edgeStyle=orthogonalEdgeStyle;rounded=0;orthogonalLoop=1;jettySize=auto;html=1;" edge="1" parent="WIyWlLk6GJQsqaUBKTNV-1" source="dr0syjzNlCjw_UHFwukT-21">
          <mxGeometry relative="1" as="geometry">
            <mxPoint x="280" y="811" as="targetPoint" />
            <Array as="points">
              <mxPoint x="500" y="670" />
              <mxPoint x="500" y="811" />
              <mxPoint x="280" y="811" />
            </Array>
          </mxGeometry>
        </mxCell>
        <mxCell id="dr0syjzNlCjw_UHFwukT-21" value="Tag file in S3" style="whiteSpace=wrap;html=1;rounded=1;strokeWidth=2;" vertex="1" parent="WIyWlLk6GJQsqaUBKTNV-1">
          <mxGeometry x="360" y="640" width="120" height="60" as="geometry" />
        </mxCell>
        <mxCell id="dr0syjzNlCjw_UHFwukT-23" value="End" style="whiteSpace=wrap;html=1;rounded=1;strokeWidth=2;" vertex="1" parent="WIyWlLk6GJQsqaUBKTNV-1">
          <mxGeometry x="160" y="781" width="120" height="60" as="geometry" />
        </mxCell>
      </root>
    </mxGraphModel>
  </diagram>
</mxfile>
